<svg width="53" height="51" viewBox="0 0 53 51" fill="none" xmlns="http://www.w3.org/2000/svg">
<path d="M3.41876 31.1148L2.27953 31.9286L3.41876 32.7423L25.9188 48.8137L26.5 49.2289L27.0812 48.8137L49.5812 32.7423L50.7205 31.9286L49.5812 31.1148L27.0812 15.0434L26.5 14.6282L25.9188 15.0434L3.41876 31.1148Z" fill="white" stroke="#232236" stroke-width="2"/>
<path d="M3.41876 24.6862L2.27953 25.5L3.41876 26.3137L25.9188 42.3851L26.5 42.8003L27.0812 42.3851L49.5812 26.3137L50.7205 25.5L49.5812 24.6862L27.0812 8.61482L26.5 8.19965L25.9188 8.61482L3.41876 24.6862Z" fill="white" stroke="#232236" stroke-width="2"/>
<path d="M3.41876 18.2577L2.27953 19.0714L3.41876 19.8851L25.9188 35.9566L26.5 36.3717L27.0812 35.9566L49.5812 19.8851L50.7205 19.0714L49.5812 18.2577L27.0812 2.18623L26.5 1.77106L25.9188 2.18623L3.41876 18.2577Z" fill="white" stroke="#232236" stroke-width="2"/>
</svg>
