<svg width="130" height="112" viewBox="0 0 130 112" fill="none" xmlns="http://www.w3.org/2000/svg">
<mask id="mask0" mask-type="alpha" maskUnits="userSpaceOnUse" x="0" y="1" width="46" height="49">
<rect y="1" width="46" height="49" fill="white"/>
<rect y="1" width="46" height="49" stroke="black"/>
</mask>
<g mask="url(#mask0)">
<circle cx="23" cy="17" r="16" fill="white"/>
<circle cx="23" cy="17" r="16" stroke="white"/>
<path d="M46 50C46 58.8366 35.7025 66 23 66C10.2975 66 0 58.8366 0 50C0 41.1634 8.80293 32 23 32C37.1971 32 46 41.1634 46 50Z" fill="white"/>
<path d="M46 50C46 58.8366 35.7025 66 23 66C10.2975 66 0 58.8366 0 50C0 41.1634 8.80293 32 23 32C37.1971 32 46 41.1634 46 50Z" stroke="white"/>
</g>
<mask id="mask1" mask-type="alpha" maskUnits="userSpaceOnUse" x="84" y="0" width="46" height="49">
<rect x="84" width="46" height="49" fill="white"/>
<rect x="84" width="46" height="49" stroke="black"/>
</mask>
<g mask="url(#mask1)">
<circle cx="107" cy="16" r="16" fill="white"/>
<circle cx="107" cy="16" r="16" stroke="white"/>
<path d="M130 49C130 57.8366 119.703 65 107 65C94.2975 65 84 57.8366 84 49C84 40.1634 92.8029 31 107 31C121.197 31 130 40.1634 130 49Z" fill="white"/>
<path d="M130 49C130 57.8366 119.703 65 107 65C94.2975 65 84 57.8366 84 49C84 40.1634 92.8029 31 107 31C121.197 31 130 40.1634 130 49Z" stroke="white"/>
</g>
<mask id="mask2" mask-type="alpha" maskUnits="userSpaceOnUse" x="42" y="63" width="46" height="49">
<rect x="42" y="63" width="46" height="49" fill="white"/>
<rect x="42" y="63" width="46" height="49" stroke="black"/>
</mask>
<g mask="url(#mask2)">
<circle cx="65" cy="79" r="16" fill="white"/>
<circle cx="65" cy="79" r="16" stroke="white"/>
<path d="M88 112C88 120.837 77.7025 128 65 128C52.2975 128 42 120.837 42 112C42 103.163 50.8029 94 65 94C79.1971 94 88 103.163 88 112Z" fill="white"/>
<path d="M88 112C88 120.837 77.7025 128 65 128C52.2975 128 42 120.837 42 112C42 103.163 50.8029 94 65 94C79.1971 94 88 103.163 88 112Z" stroke="white"/>
</g>
</svg>
